<?xml version="1.0" encoding="UTF-8"?>
<svg xmlns="http://www.w3.org/2000/svg" viewBox="0 0 512 512" width="512" height="512" role="img" aria-label="StikmNek">
  <defs>
    <linearGradient id="sn-bg" x1="0%" y1="0%" x2="100%" y2="100%">
      <stop offset="0%" stop-color="#0d9488"/>
      <stop offset="100%" stop-color="#059669"/>
    </linearGradient>
    <linearGradient id="sn-shine" x1="0%" y1="0%" x2="100%" y2="100%">
      <stop offset="0%" stop-color="#ffffff" stop-opacity="0.22"/>
      <stop offset="100%" stop-color="#ffffff" stop-opacity="0.04"/>
    </linearGradient>
  </defs>
  <rect width="512" height="512" rx="112" fill="url(#sn-bg)"/>
  <circle cx="392" cy="118" r="128" fill="url(#sn-shine)"/>
  <circle cx="128" cy="396" r="96" fill="url(#sn-shine)"/>
  <path
    d="M308 150c-14-14-34-22-58-26-26-4-52-2-78 10-26 12-48 28-64 50-16 22-24 48-22 76 2 22 12 40 28 54 16 14 36 26 60 34l56 20c20 8 36 16 48 28 12 12 18 26 18 44 0 20-8 38-24 52-16 14-36 22-60 24-24 2-46-4-66-16-20-12-34-30-42-52"
    fill="none"
    stroke="#ffffff"
    stroke-width="34"
    stroke-linecap="round"
    stroke-linejoin="round"
  />
  <path
    d="M358 88c8-18 26-32 50-38-12 18-18 38-16 58M362 86c18-8 40-8 58 4-18 6-34 16-44 30"
    fill="none"
    stroke="#ffffff"
    stroke-width="7"
    stroke-linecap="round"
    opacity="0.55"
  />
</svg>
